# Blender 3.4.1
# www.blender.org
mtllib SmallButton.mtl
o SmallButton
v 1.000000 0.100000 -0.800000
v 0.993185 0.100000 -0.851764
v 0.973205 0.100000 -0.900000
v 0.941421 0.100000 -0.941421
v 0.900000 0.100000 -0.973205
v 0.851764 0.100000 -0.993185
v 0.800000 0.100000 -1.000000
v -0.800000 0.100000 -1.000000
v -0.851764 0.100000 -0.993185
v -0.900000 0.100000 -0.973205
v -0.941421 0.100000 -0.941421
v -0.973205 0.100000 -0.900000
v -0.993185 0.100000 -0.851764
v -1.000000 0.100000 -0.800000
v -1.000000 0.100000 0.800000
v -0.993185 0.100000 0.851764
v -0.973205 0.100000 0.900000
v -0.941421 0.100000 0.941421
v -0.900000 0.100000 0.973205
v -0.851764 0.100000 0.993185
v -0.800000 0.100000 1.000000
v 0.800000 0.100000 1.000000
v 0.851764 0.100000 0.993185
v 0.900000 0.100000 0.973205
v 0.941421 0.100000 0.941421
v 0.973205 0.100000 0.900000
v 0.993185 0.100000 0.851764
v 1.000000 0.100000 0.800000
v -1.029369 0.092719 -0.861459
v -1.037380 0.092719 -0.802450
v -1.061486 0.070711 -0.870065
v -1.070559 0.070711 -0.804625
v -1.082099 0.039073 -0.875588
v -1.091853 0.039073 -0.806020
v -1.089778 0.000000 -0.877646
v -1.099786 0.000000 -0.806540
v -1.005647 0.092719 -0.918730
v -1.034442 0.070711 -0.935355
v -1.052923 0.039073 -0.946025
v -1.059808 0.000000 -0.950000
v -0.967910 0.092719 -0.967910
v -0.991421 0.070711 -0.991421
v -1.006511 0.039073 -1.006511
v -1.012132 0.000000 -1.012132
v -0.918730 0.092719 -1.005647
v -0.935355 0.070711 -1.034442
v -0.946025 0.039073 -1.052923
v -0.950000 0.000000 -1.059808
v -0.861459 0.092719 -1.029369
v -0.870065 0.070711 -1.061486
v -0.875588 0.039073 -1.082099
v -0.877646 0.000000 -1.089778
v -0.802450 0.092719 -1.037380
v -0.804625 0.070711 -1.070559
v -0.806020 0.039073 -1.091853
v -0.806540 0.000000 -1.099786
v 0.802450 0.092719 -1.037380
v 0.804625 0.070711 -1.070559
v 0.806020 0.039073 -1.091853
v 0.806540 0.000000 -1.099786
v 0.861459 0.092719 -1.029369
v 0.870065 0.070711 -1.061486
v 0.875588 0.039073 -1.082099
v 0.877646 0.000000 -1.089778
v 0.918730 0.092719 -1.005647
v 0.935355 0.070711 -1.034442
v 0.946025 0.039073 -1.052923
v 0.950000 0.000000 -1.059808
v 0.967910 0.092719 -0.967910
v 0.991421 0.070711 -0.991421
v 1.006511 0.039073 -1.006511
v 1.012132 0.000000 -1.012132
v 1.005647 0.092719 -0.918730
v 1.034442 0.070711 -0.935355
v 1.052923 0.039073 -0.946025
v 1.059808 0.000000 -0.950000
v 1.029369 0.092719 -0.861459
v 1.061486 0.070711 -0.870065
v 1.082099 0.039073 -0.875588
v 1.089778 0.000000 -0.877646
v 1.037380 0.092719 -0.802450
v 1.070559 0.070711 -0.804625
v 1.091853 0.039073 -0.806020
v 1.099786 0.000000 -0.806540
v 1.037380 0.092718 0.802450
v 1.070559 0.070711 0.804625
v 1.091853 0.039073 0.806020
v 1.099786 -0.000000 0.806540
v 1.029369 0.092718 0.861459
v 1.061486 0.070711 0.870065
v 1.082099 0.039073 0.875588
v 1.089778 -0.000000 0.877646
v 1.005647 0.092718 0.918730
v 1.034442 0.070711 0.935355
v 1.052923 0.039073 0.946025
v 1.059808 -0.000000 0.950000
v 0.967910 0.092718 0.967910
v 0.991421 0.070711 0.991421
v 1.006511 0.039073 1.006511
v 1.012132 -0.000000 1.012132
v 0.918730 0.092718 1.005647
v 0.935355 0.070711 1.034442
v 0.946025 0.039073 1.052923
v 0.950000 -0.000000 1.059808
v 0.861459 0.092718 1.029369
v 0.870065 0.070711 1.061486
v 0.875588 0.039073 1.082099
v 0.877646 -0.000000 1.089778
v 0.802450 0.092718 1.037380
v 0.804625 0.070711 1.070559
v 0.806020 0.039073 1.091853
v 0.806540 -0.000000 1.099786
v -0.802450 0.092718 1.037380
v -0.804625 0.070711 1.070559
v -0.806020 0.039073 1.091853
v -0.806540 -0.000000 1.099786
v -0.861459 0.092718 1.029369
v -0.870065 0.070711 1.061486
v -0.875588 0.039073 1.082099
v -0.877646 -0.000000 1.089778
v -0.918730 0.092718 1.005647
v -0.935355 0.070711 1.034442
v -0.946025 0.039073 1.052923
v -0.950000 -0.000000 1.059808
v -0.967910 0.092718 0.967910
v -0.991421 0.070711 0.991421
v -1.006511 0.039073 1.006511
v -1.012132 -0.000000 1.012132
v -1.005647 0.092718 0.918730
v -1.034442 0.070711 0.935355
v -1.052923 0.039073 0.946025
v -1.059808 -0.000000 0.950000
v -1.029369 0.092718 0.861459
v -1.061486 0.070711 0.870065
v -1.082099 0.039073 0.875588
v -1.089778 -0.000000 0.877646
v -1.037380 0.092718 0.802450
v -1.070559 0.070711 0.804625
v -1.091853 0.039073 0.806020
v -1.099786 -0.000000 0.806540
vn -0.0000 1.0000 -0.0000
vn -0.3714 0.9272 -0.0489
vn -0.7011 0.7071 -0.0923
vn -0.7010 0.7071 -0.0923
vn -0.9126 0.3907 -0.1201
vn -0.9126 0.3908 -0.1202
vn -0.9914 -0.0000 -0.1305
vn -0.0000 -0.0000 -0.0000
vn -0.3461 0.9272 -0.1433
vn -0.3461 0.9272 -0.1434
vn -0.6533 0.7071 -0.2706
vn -0.8504 0.3907 -0.3523
vn -0.9239 -0.0000 -0.3827
vn -0.9205 0.3907 -0.0000
vn -1.0000 -0.0000 -0.0000
vn -0.2972 0.9272 -0.2280
vn -0.2972 0.9272 -0.2281
vn -0.5610 0.7071 -0.4304
vn -0.5610 0.7071 -0.4305
vn -0.7303 0.3907 -0.5604
vn -0.7934 -0.0000 -0.6088
vn -0.7933 -0.0000 -0.6088
vn -0.7071 0.7071 -0.0000
vn -0.2281 0.9272 -0.2972
vn -0.2280 0.9272 -0.2972
vn -0.4305 0.7071 -0.5610
vn -0.4304 0.7071 -0.5610
vn -0.5604 0.3907 -0.7303
vn -0.6088 -0.0000 -0.7933
vn -0.6088 -0.0000 -0.7934
vn -0.3746 0.9272 -0.0000
vn -0.1434 0.9272 -0.3461
vn -0.1433 0.9272 -0.3461
vn -0.2706 0.7071 -0.6533
vn -0.3523 0.3907 -0.8504
vn -0.3827 -0.0000 -0.9239
vn -0.0489 0.9272 -0.3714
vn -0.0923 0.7071 -0.7011
vn -0.0923 0.7071 -0.7010
vn -0.1202 0.3908 -0.9126
vn -0.1201 0.3907 -0.9126
vn -0.1305 -0.0000 -0.9914
vn -0.9914 -0.0000 0.1305
vn -0.9914 0.0001 0.1305
vn -0.0000 0.9272 -0.3746
vn -0.0000 0.7071 -0.7071
vn -0.0000 0.3907 -0.9205
vn -0.0000 -0.0000 -1.0000
vn -0.9126 0.3907 0.1201
vn 0.0489 0.9272 -0.3714
vn 0.0923 0.7071 -0.7011
vn 0.0923 0.7071 -0.7010
vn 0.1201 0.3907 -0.9126
vn 0.1202 0.3908 -0.9126
vn 0.1305 -0.0000 -0.9914
vn -0.7011 0.7071 0.0923
vn -0.7010 0.7071 0.0923
vn -0.9126 0.3908 0.1202
vn 0.1433 0.9272 -0.3461
vn 0.1434 0.9272 -0.3461
vn 0.2706 0.7071 -0.6533
vn 0.3523 0.3907 -0.8504
vn 0.3827 -0.0000 -0.9239
vn -0.3714 0.9272 0.0489
vn 0.2280 0.9272 -0.2972
vn 0.2281 0.9272 -0.2972
vn 0.4304 0.7071 -0.5610
vn 0.4305 0.7071 -0.5610
vn 0.5604 0.3907 -0.7303
vn 0.6088 -0.0000 -0.7934
vn 0.6088 -0.0000 -0.7933
vn 0.2972 0.9272 -0.2281
vn 0.2972 0.9272 -0.2280
vn 0.5610 0.7071 -0.4305
vn 0.5610 0.7071 -0.4304
vn 0.7303 0.3907 -0.5604
vn 0.7933 -0.0000 -0.6088
vn 0.7934 -0.0000 -0.6088
vn -0.9239 -0.0000 0.3827
vn 0.3461 0.9272 -0.1434
vn 0.3461 0.9272 -0.1433
vn 0.6533 0.7071 -0.2706
vn 0.8504 0.3907 -0.3523
vn 0.9239 -0.0000 -0.3827
vn -0.8504 0.3907 0.3523
vn 0.3714 0.9272 -0.0489
vn 0.7011 0.7071 -0.0923
vn 0.7010 0.7071 -0.0923
vn 0.9126 0.3908 -0.1202
vn 0.9126 0.3907 -0.1201
vn 0.9914 -0.0000 -0.1305
vn -0.6533 0.7071 0.2706
vn 0.3746 0.9272 -0.0000
vn 0.7071 0.7071 -0.0000
vn 0.9205 0.3907 -0.0000
vn 1.0000 -0.0000 -0.0000
vn -0.3461 0.9272 0.1433
vn -0.3461 0.9272 0.1434
vn 0.3714 0.9272 0.0489
vn 0.7011 0.7071 0.0923
vn 0.7010 0.7071 0.0923
vn 0.9126 0.3907 0.1201
vn 0.9126 0.3908 0.1202
vn 0.9914 -0.0000 0.1305
vn 0.3461 0.9272 0.1433
vn 0.3461 0.9272 0.1434
vn 0.6533 0.7071 0.2706
vn 0.8504 0.3907 0.3523
vn 0.9239 -0.0000 0.3827
vn -0.7933 -0.0000 0.6088
vn -0.7934 -0.0000 0.6087
vn -0.7934 0.0003 0.6087
vn 0.2972 0.9272 0.2280
vn 0.2972 0.9272 0.2281
vn 0.5610 0.7071 0.4304
vn 0.5610 0.7071 0.4305
vn 0.7303 0.3907 0.5604
vn 0.7934 -0.0000 0.6088
vn 0.7933 -0.0000 0.6088
vn -0.7303 0.3907 0.5604
vn -0.7934 -0.0000 0.6088
vn 0.2281 0.9272 0.2972
vn 0.2280 0.9272 0.2972
vn 0.4305 0.7071 0.5610
vn 0.4304 0.7071 0.5610
vn 0.5604 0.3907 0.7303
vn 0.6088 -0.0000 0.7933
vn 0.6088 -0.0000 0.7934
vn -0.5610 0.7071 0.4304
vn -0.5610 0.7071 0.4305
vn 0.1434 0.9272 0.3461
vn 0.1433 0.9272 0.3461
vn 0.2706 0.7071 0.6533
vn 0.3523 0.3907 0.8504
vn 0.3827 -0.0000 0.9239
vn -0.2972 0.9272 0.2280
vn 0.0489 0.9272 0.3714
vn 0.0923 0.7071 0.7011
vn 0.0923 0.7071 0.7010
vn 0.1202 0.3908 0.9126
vn 0.1201 0.3907 0.9126
vn 0.1305 -0.0000 0.9914
vn -0.2972 0.9272 0.2281
vn -0.0000 0.9272 0.3746
vn -0.0000 0.7071 0.7071
vn -0.0000 0.3907 0.9205
vn -0.0000 -0.0000 1.0000
vn -0.6088 -0.0000 0.7934
vn -0.6088 0.0002 0.7934
vn -0.0489 0.9272 0.3714
vn -0.0923 0.7071 0.7011
vn -0.0923 0.7071 0.7010
vn -0.1201 0.3907 0.9126
vn -0.1202 0.3908 0.9126
vn -0.1305 -0.0000 0.9914
vn -0.5604 0.3907 0.7303
vn -0.6088 -0.0000 0.7933
vn -0.1433 0.9272 0.3461
vn -0.1434 0.9272 0.3461
vn -0.2706 0.7071 0.6533
vn -0.3523 0.3907 0.8504
vn -0.3827 -0.0000 0.9239
vn -0.4305 0.7071 0.5610
vn -0.4304 0.7071 0.5610
vn -0.2280 0.9272 0.2972
vn -0.2281 0.9272 0.2972
vn -0.0000 -1.0000 -0.0000
vt 0.000000 0.000000
vt 0.000000 0.000000
vt 0.000000 0.000000
vt 0.000000 0.000000
vt 0.000000 0.000000
vt 0.000000 0.000000
vt 0.000000 0.000000
vt 0.000000 0.000000
vt 0.000000 0.000000
vt 0.000000 0.000000
vt 0.000000 0.000000
vt 0.000000 0.000000
vt 0.000000 0.000000
vt 0.000000 0.000000
vt 0.000000 0.000000
vt 0.000000 0.000000
vt 0.000000 0.000000
vt 0.000000 0.000000
vt 0.000000 0.000000
vt 0.000000 0.000000
vt 0.000000 0.000000
vt 0.000000 0.000000
vt 0.000000 0.000000
vt 0.000000 0.000000
vt 0.000000 0.000000
vt 0.000000 0.000000
vt 0.000000 0.000000
vt 0.000000 0.000000
vt 0.000000 0.000000
vt 0.000000 0.000000
vt 0.000000 0.000000
vt 0.000000 0.000000
vt 0.000000 0.000000
vt 0.000000 0.000000
vt 0.000000 0.000000
vt 0.000000 0.000000
vt 0.000000 0.000000
vt 0.000000 0.000000
vt 0.000000 0.000000
vt 0.000000 0.000000
vt 0.000000 0.000000
vt 0.000000 0.000000
vt 0.000000 0.000000
vt 0.000000 0.000000
vt 0.000000 0.000000
vt 0.000000 0.000000
vt 0.000000 0.000000
vt 0.000000 0.000000
vt 0.000000 0.000000
vt 0.000000 0.000000
vt 0.000000 0.000000
vt 0.000000 0.000000
vt 0.000000 0.000000
vt 0.000000 0.000000
vt 0.000000 0.000000
vt 0.000000 0.000000
vt 0.000000 0.000000
vt 0.000000 0.000000
vt 0.000000 0.000000
vt 0.000000 0.000000
vt 0.000000 0.000000
vt 0.000000 0.000000
vt 0.000000 0.000000
vt 0.000000 0.000000
vt 0.000000 0.000000
vt 0.000000 0.000000
vt 0.000000 0.000000
vt 0.000000 0.000000
vt 0.000000 0.000000
vt 0.000000 0.000000
vt 0.000000 0.000000
vt 0.000000 0.000000
vt 0.000000 0.000000
vt 0.000000 0.000000
vt 0.000000 0.000000
vt 0.000000 0.000000
vt 0.000000 0.000000
vt 0.000000 0.000000
vt 0.000000 0.000000
vt 0.000000 0.000000
vt 0.000000 0.000000
vt 0.000000 0.000000
vt 0.000000 0.000000
vt 0.000000 0.000000
vt 0.000000 0.000000
vt 0.000000 0.000000
vt 0.000000 0.000000
vt 0.000000 0.000000
vt 0.000000 0.000000
vt 0.000000 0.000000
vt 0.000000 0.000000
vt 0.000000 0.000000
vt 0.000000 0.000000
vt 0.000000 0.000000
vt 0.000000 0.000000
vt 0.000000 0.000000
vt 0.000000 0.000000
vt 0.000000 0.000000
vt 0.000000 0.000000
vt 0.000000 0.000000
vt 0.000000 0.000000
vt 0.000000 0.000000
vt 0.000000 0.000000
vt 0.000000 0.000000
vt 0.000000 0.000000
vt 0.000000 0.000000
vt 0.000000 0.000000
vt 0.000000 0.000000
vt 0.000000 0.000000
vt 0.000000 0.000000
vt 0.000000 0.000000
vt 0.000000 0.000000
vt 0.000000 0.000000
vt 0.000000 0.000000
vt 0.000000 0.000000
vt 0.000000 0.000000
vt 0.000000 0.000000
vt 0.000000 0.000000
vt 0.000000 0.000000
vt 0.000000 0.000000
vt 0.000000 0.000000
vt 0.000000 0.000000
vt 0.000000 0.000000
vt 0.000000 0.000000
vt 0.000000 0.000000
vt 0.000000 0.000000
vt 0.000000 0.000000
vt 0.000000 0.000000
vt 0.000000 0.000000
vt 0.000000 0.000000
vt 0.000000 0.000000
vt 0.000000 0.000000
vt 0.000000 0.000000
vt 0.000000 0.000000
vt 0.000000 0.000000
vt 0.000000 0.000000
vt 0.000000 0.000000
vt 0.000000 0.000000
vt 0.000000 0.000000
vt 0.000000 0.000000
s 0
f 1/1/1 2/2/1 3/3/1 4/4/1 5/5/1 6/6/1 7/7/1 8/8/1 9/9/1 10/10/1 11/11/1 12/12/1 13/13/1 14/14/1 15/15/1 16/16/1 17/17/1 18/18/1 19/19/1 20/20/1 21/21/1 22/22/1 23/23/1 24/24/1 25/25/1 26/26/1 27/27/1 28/28/1
f 14/14/1 13/13/1 29/29/2 30/30/2
f 30/30/2 29/29/2 31/31/3 32/32/3
f 32/32/4 31/31/3 33/33/5 34/34/6
f 34/34/5 33/33/5 35/35/7 36/36/7
f 140/140/8 36/36/8 36/36/8 140/140/8
f 13/13/1 12/12/1 37/37/9 29/29/10
f 29/29/10 37/37/9 38/38/11 31/31/11
f 31/31/11 38/38/11 39/39/12 33/33/12
f 33/33/12 39/39/12 40/40/13 35/35/13
f 139/139/14 34/34/14 36/36/15 140/140/15
f 12/12/1 11/11/1 41/41/16 37/37/17
f 37/37/16 41/41/16 42/42/18 38/38/19
f 38/38/19 42/42/18 43/43/20 39/39/20
f 39/39/20 43/43/20 44/44/21 40/40/22
f 138/138/23 32/32/23 34/34/14 139/139/14
f 11/11/1 10/10/1 45/45/24 41/41/25
f 41/41/25 45/45/25 46/46/26 42/42/27
f 42/42/27 46/46/26 47/47/28 43/43/28
f 43/43/28 47/47/28 48/48/29 44/44/30
f 137/137/31 30/30/31 32/32/23 138/138/23
f 10/10/1 9/9/1 49/49/32 45/45/33
f 45/45/33 49/49/32 50/50/34 46/46/34
f 46/46/34 50/50/34 51/51/35 47/47/35
f 47/47/35 51/51/35 52/52/36 48/48/36
f 15/15/1 14/14/1 30/30/31 137/137/31
f 9/9/1 8/8/1 53/53/37 49/49/37
f 49/49/37 53/53/37 54/54/38 50/50/38
f 50/50/38 54/54/39 55/55/40 51/51/41
f 51/51/41 55/55/41 56/56/42 52/52/42
f 136/136/43 140/140/44 140/140/44 136/136/43
f 8/8/1 7/7/1 57/57/45 53/53/45
f 53/53/45 57/57/45 58/58/46 54/54/46
f 54/54/46 58/58/46 59/59/47 55/55/47
f 55/55/47 59/59/47 60/60/48 56/56/48
f 135/135/49 139/139/49 140/140/43 136/136/43
f 7/7/1 6/6/1 61/61/50 57/57/50
f 57/57/50 61/61/50 62/62/51 58/58/51
f 58/58/52 62/62/51 63/63/53 59/59/54
f 59/59/53 63/63/53 64/64/55 60/60/55
f 134/134/56 138/138/57 139/139/58 135/135/49
f 6/6/1 5/5/1 65/65/59 61/61/60
f 61/61/60 65/65/60 66/66/61 62/62/61
f 62/62/61 66/66/61 67/67/62 63/63/62
f 63/63/62 67/67/62 68/68/63 64/64/63
f 133/133/64 137/137/64 138/138/56 134/134/56
f 5/5/1 4/4/1 69/69/65 65/65/66
f 65/65/65 69/69/65 70/70/67 66/66/68
f 66/66/68 70/70/67 71/71/69 67/67/69
f 67/67/69 71/71/69 72/72/70 68/68/71
f 16/16/1 15/15/1 137/137/64 133/133/64
f 4/4/1 3/3/1 73/73/72 69/69/73
f 69/69/73 73/73/73 74/74/74 70/70/75
f 70/70/75 74/74/74 75/75/76 71/71/76
f 71/71/76 75/75/76 76/76/77 72/72/78
f 132/132/79 136/136/79 136/136/79 132/132/79
f 3/3/1 2/2/1 77/77/80 73/73/81
f 73/73/81 77/77/80 78/78/82 74/74/82
f 74/74/82 78/78/82 79/79/83 75/75/83
f 75/75/83 79/79/83 80/80/84 76/76/84
f 131/131/85 135/135/85 136/136/79 132/132/79
f 2/2/1 1/1/1 81/81/86 77/77/86
f 77/77/86 81/81/86 82/82/87 78/78/87
f 78/78/87 82/82/88 83/83/89 79/79/90
f 79/79/90 83/83/90 84/84/91 80/80/91
f 130/130/92 134/134/92 135/135/85 131/131/85
f 1/1/1 28/28/1 85/85/93 81/81/93
f 81/81/93 85/85/93 86/86/94 82/82/94
f 82/82/94 86/86/94 87/87/95 83/83/95
f 83/83/95 87/87/95 88/88/96 84/84/96
f 129/129/97 133/133/98 134/134/92 130/130/92
f 28/28/1 27/27/1 89/89/99 85/85/99
f 85/85/99 89/89/99 90/90/100 86/86/100
f 86/86/101 90/90/100 91/91/102 87/87/103
f 87/87/102 91/91/102 92/92/104 88/88/104
f 17/17/1 16/16/1 133/133/98 129/129/97
f 27/27/1 26/26/1 93/93/105 89/89/106
f 89/89/106 93/93/105 94/94/107 90/90/107
f 90/90/107 94/94/107 95/95/108 91/91/108
f 91/91/108 95/95/108 96/96/109 92/92/109
f 128/128/110 132/132/111 132/132/112 128/128/110
f 26/26/1 25/25/1 97/97/113 93/93/114
f 93/93/113 97/97/113 98/98/115 94/94/116
f 94/94/116 98/98/115 99/99/117 95/95/117
f 95/95/117 99/99/117 100/100/118 96/96/119
f 127/127/120 131/131/120 132/132/110 128/128/121
f 25/25/1 24/24/1 101/101/122 97/97/123
f 97/97/123 101/101/123 102/102/124 98/98/125
f 98/98/125 102/102/124 103/103/126 99/99/126
f 99/99/126 103/103/126 104/104/127 100/100/128
f 126/126/129 130/130/130 131/131/120 127/127/120
f 24/24/1 23/23/1 105/105/131 101/101/132
f 101/101/132 105/105/131 106/106/133 102/102/133
f 102/102/133 106/106/133 107/107/134 103/103/134
f 103/103/134 107/107/134 108/108/135 104/104/135
f 125/125/136 129/129/136 130/130/130 126/126/129
f 23/23/1 22/22/1 109/109/137 105/105/137
f 105/105/137 109/109/137 110/110/138 106/106/138
f 106/106/138 110/110/139 111/111/140 107/107/141
f 107/107/141 111/111/141 112/112/142 108/108/142
f 18/18/1 17/17/1 129/129/143 125/125/136
f 22/22/1 21/21/1 113/113/144 109/109/144
f 109/109/144 113/113/144 114/114/145 110/110/145
f 110/110/145 114/114/145 115/115/146 111/111/146
f 111/111/146 115/115/146 116/116/147 112/112/147
f 124/124/148 128/128/148 128/128/149 124/124/148
f 21/21/1 20/20/1 117/117/150 113/113/150
f 113/113/150 117/117/150 118/118/151 114/114/151
f 114/114/152 118/118/151 119/119/153 115/115/154
f 115/115/153 119/119/153 120/120/155 116/116/155
f 123/123/156 127/127/156 128/128/148 124/124/157
f 20/20/1 19/19/1 121/121/158 117/117/159
f 117/117/159 121/121/159 122/122/160 118/118/160
f 118/118/160 122/122/160 123/123/161 119/119/161
f 119/119/161 123/123/161 124/124/162 120/120/162
f 122/122/163 126/126/164 127/127/156 123/123/156
f 19/19/1 18/18/1 125/125/165 121/121/166
f 121/121/165 125/125/165 126/126/164 122/122/163
f 35/35/167 40/40/167 44/44/167 48/48/167 52/52/167 56/56/167 60/60/167 64/64/167 68/68/167 72/72/167 76/76/167 80/80/167 84/84/167 88/88/167 92/92/167 96/96/167 100/100/167 104/104/167 108/108/167 112/112/167 116/116/167 120/120/167 124/124/167 128/128/167 132/132/167 136/136/167 140/140/167 36/36/167
